<svg width="37" height="37" viewBox="0 0 37 37" fill="none" xmlns="http://www.w3.org/2000/svg">
<g clip-path="url(#clip0_220_605)">
<path d="M36.8568 18.3257C36.8568 8.20309 28.7014 -0.00244141 18.6425 -0.00244141C8.57912 -0.000164621 0.423676 8.20309 0.423676 18.328C0.423676 27.4738 7.08555 35.0555 15.792 36.4307V23.6238H11.1701V18.328H15.7965V14.2867C15.7965 9.69439 18.5173 7.15805 22.677 7.15805C24.6714 7.15805 26.7547 7.5155 26.7547 7.5155V12.0235H24.4574C22.1966 12.0235 21.4908 13.4374 21.4908 14.8877V18.3257H26.5407L25.7347 23.6215H21.4885V36.4284C30.1949 35.0532 36.8568 27.4715 36.8568 18.3257Z" fill="#32ACDB"/>
</g>
<defs>
<clipPath id="clip0_220_605">
<rect width="36.4286" height="36.4286" fill="white" transform="translate(0.428558)"/>
</clipPath>
</defs>
</svg>
