<svg width="38" height="37" viewBox="0 0 38 37" fill="none" xmlns="http://www.w3.org/2000/svg">
<g clip-path="url(#clip0_220_608)">
<path d="M19.0714 0C14.1285 0 13.5069 0.0227679 11.5648 0.109286C9.62274 0.200357 8.29993 0.505446 7.14104 0.95625C5.92545 1.41347 4.8244 2.13068 3.91484 3.05772C2.98836 3.96775 2.27124 5.06867 1.81337 6.28393C1.36256 7.44053 1.0552 8.76562 0.966402 10.7009C0.879885 12.6475 0.857117 13.2668 0.857117 18.2166C0.857117 23.1617 0.879885 23.781 0.966402 25.7231C1.05747 27.6629 1.36256 28.9858 1.81337 30.1446C2.28011 31.3422 2.90167 32.3577 3.91484 33.3708C4.92573 34.384 5.94118 35.0079 7.13877 35.4723C8.29993 35.9231 9.62046 36.2305 11.5603 36.3193C13.5047 36.4058 14.1239 36.4286 19.0714 36.4286C24.0189 36.4286 24.6359 36.4058 26.5802 36.3193C28.5178 36.2282 29.8451 35.9231 31.004 35.4723C32.2188 35.0149 33.3191 34.2977 34.228 33.3708C35.2411 32.3577 35.8627 31.3422 36.3294 30.1446C36.778 28.9858 37.0853 27.6629 37.1764 25.7231C37.2629 23.781 37.2857 23.1617 37.2857 18.2143C37.2857 13.2668 37.2629 12.6475 37.1764 10.7032C37.0853 8.76562 36.778 7.44053 36.3294 6.28393C35.8716 5.06864 35.1545 3.9677 34.228 3.05772C33.3187 2.13033 32.2175 1.41308 31.0018 0.95625C29.8406 0.505446 28.5155 0.19808 26.578 0.109286C24.6336 0.0227679 24.0166 0 19.0668 0H19.0737H19.0714ZM17.4389 3.28312H19.0737C23.9369 3.28312 24.5129 3.29906 26.4322 3.38786C28.2081 3.46754 29.1735 3.7658 29.8155 4.01397C30.6648 4.34411 31.2727 4.74027 31.9102 5.37777C32.5477 6.01527 32.9416 6.62089 33.2717 7.47241C33.5222 8.11219 33.8181 9.07754 33.8978 10.8534C33.9866 12.7728 34.0048 13.3488 34.0048 18.2097C34.0048 23.0707 33.9866 23.649 33.8978 25.5683C33.8181 27.3442 33.5199 28.3073 33.2717 28.9493C32.9797 29.7402 32.5136 30.4553 31.9079 31.0417C31.2704 31.6792 30.6648 32.0731 29.8133 32.4032C29.1758 32.6537 28.2104 32.9496 26.4322 33.0316C24.5129 33.1181 23.9369 33.1386 19.0737 33.1386C14.2105 33.1386 13.6322 33.1181 11.7128 33.0316C9.93694 32.9496 8.97386 32.6537 8.3318 32.4032C7.54062 32.1116 6.82486 31.6464 6.23716 31.0417C5.63097 30.4544 5.16416 29.7386 4.87109 28.947C4.62292 28.3073 4.32466 27.3419 4.24497 25.566C4.15846 23.6467 4.14024 23.0707 4.14024 18.2052C4.14024 13.342 4.15846 12.7682 4.24497 10.8489C4.32694 9.07299 4.62292 8.10763 4.87337 7.46558C5.2035 6.61634 5.59966 6.00844 6.23716 5.37094C6.87466 4.73344 7.48029 4.33955 8.3318 4.00942C8.97386 3.75897 9.93694 3.46299 11.7128 3.38103C13.3931 3.30362 14.0443 3.28085 17.4389 3.27857V3.28312ZM28.7955 6.3067C28.5085 6.3067 28.2243 6.36323 27.9591 6.47307C27.6939 6.58292 27.453 6.74391 27.25 6.94688C27.0471 7.14984 26.8861 7.39079 26.7762 7.65597C26.6664 7.92116 26.6098 8.20538 26.6098 8.49241C26.6098 8.77944 26.6664 9.06366 26.7762 9.32885C26.8861 9.59403 27.0471 9.83498 27.25 10.0379C27.453 10.2409 27.6939 10.4019 27.9591 10.5117C28.2243 10.6216 28.5085 10.6781 28.7955 10.6781C29.3752 10.6781 29.9312 10.4478 30.3411 10.0379C30.751 9.62804 30.9813 9.0721 30.9813 8.49241C30.9813 7.91272 30.751 7.35678 30.3411 6.94688C29.9312 6.53698 29.3752 6.3067 28.7955 6.3067ZM19.0737 8.86125C17.833 8.84189 16.6008 9.06954 15.449 9.53094C14.2971 9.99235 13.2486 10.6783 12.3643 11.5488C11.4801 12.4194 10.7779 13.4571 10.2986 14.6016C9.81927 15.7461 9.57242 16.9746 9.57242 18.2154C9.57242 19.4563 9.81927 20.6847 10.2986 21.8292C10.7779 22.9738 11.4801 24.0115 12.3643 24.882C13.2486 25.7526 14.2971 26.4385 15.449 26.8999C16.6008 27.3613 17.833 27.589 19.0737 27.5696C21.5293 27.5313 23.8713 26.5289 25.5943 24.7788C27.3173 23.0287 28.283 20.6713 28.283 18.2154C28.283 15.7595 27.3173 13.4021 25.5943 11.652C23.8713 9.90194 21.5293 8.89956 19.0737 8.86125ZM19.0737 12.1421C20.6841 12.1421 22.2286 12.7818 23.3674 13.9206C24.5061 15.0594 25.1459 16.6038 25.1459 18.2143C25.1459 19.8247 24.5061 21.3692 23.3674 22.508C22.2286 23.6467 20.6841 24.2865 19.0737 24.2865C17.4632 24.2865 15.9187 23.6467 14.78 22.508C13.6412 21.3692 13.0015 19.8247 13.0015 18.2143C13.0015 16.6038 13.6412 15.0594 14.78 13.9206C15.9187 12.7818 17.4632 12.1421 19.0737 12.1421Z" fill="#32ACDB"/>
</g>
<defs>
<clipPath id="clip0_220_608">
<rect width="36.4286" height="36.4286" fill="white" transform="translate(0.857117)"/>
</clipPath>
</defs>
</svg>
