<svg width="37" height="37" viewBox="0 0 37 37" fill="none" xmlns="http://www.w3.org/2000/svg">
<g clip-path="url(#clip0_220_602)">
<path d="M11.4431 34.1518C25.1904 34.1518 32.7106 22.761 32.7106 12.9003C32.7106 12.5815 32.7106 12.2582 32.6969 11.9395C34.161 10.8796 35.4246 9.56741 36.4286 8.06438C35.0609 8.66739 33.6116 9.06482 32.1277 9.24376C33.6908 8.30945 34.8615 6.8394 35.4222 5.10684C33.9537 5.97685 32.3463 6.5876 30.6706 6.91233C29.544 5.71252 28.0532 4.91768 26.4291 4.65093C24.805 4.38418 23.1383 4.66041 21.6872 5.43683C20.236 6.21325 19.0813 7.44653 18.402 8.94564C17.7227 10.4447 17.5567 12.126 17.9297 13.729C14.9579 13.58 12.0506 12.808 9.39639 11.463C6.74218 10.1181 4.40031 8.23023 2.52268 5.92193C1.56948 7.56823 1.27858 9.51561 1.70906 11.3686C2.13954 13.2216 3.25912 14.8413 4.84045 15.8988C3.65547 15.8585 2.49654 15.5403 1.45714 14.9699V15.0723C1.45919 16.797 2.05664 18.468 3.14851 19.8029C4.24038 21.1379 5.75969 22.0549 7.44964 22.399C6.80819 22.5757 6.14557 22.6638 5.48022 22.6609C5.01117 22.6623 4.54305 22.6188 4.08228 22.5311C4.55992 24.0157 5.48995 25.3137 6.74212 26.2433C7.9943 27.173 9.50589 27.6877 11.0652 27.7153C8.41626 29.7958 5.14417 30.9242 1.77589 30.9188C1.18238 30.9213 0.589285 30.887 0 30.8163C3.41863 32.9958 7.38885 34.153 11.4431 34.1518Z" fill="#32ACDB"/>
</g>
<defs>
<clipPath id="clip0_220_602">
<rect width="36.4286" height="36.4286" fill="white"/>
</clipPath>
</defs>
</svg>
